# xmcd
#
# Track frame offsets:
#	150
#	3512
#	13782
#	26030
#	29835
#	44902
#	48757
#	58840
#	64075
#	76142
#	88632
#	92442
#	104335
#	121190
#	123940
#	133780
#	148025
#
# Disc length: 2039 seconds
#
# Revision: 1
# Processed by: cddbd v1.4PL0 Copyright (c) Steve Scherf et al.
# Submitted via: audiograbber 1.81.02
#
DISCID=e807f511
DTITLE=Jim Bowman - Refections From Another Camp
DYEAR=2001
DGENRE=Country
TTITLE0=Messaige To Anti Hunters
TTITLE1=Phantom Wapati
TTITLE2=Bowhunter Do Or Die
TTITLE3=Turkey Talk
TTITLE4=Camolage Morining
TTITLE5=Those Shinging Mountains
TTITLE6=Rocky Mountian Song
TTITLE7=Ishi The Hunter
TTITLE8=Song Of Ishi
TTITLE9=The Hunter And The Prey
TTITLE10=For Caribou
TTITLE11=What A Day For Caribou
TTITLE12=Antelope Lament
TTITLE13=The Goose And The Gun Part 1
TTITLE14=The Goose And The Gun Part 2
TTITLE15=Mother Nature And The Outdoorsmen
TTITLE16=Endangered Spcies
EXTD=
EXTT0=
EXTT1=
EXTT2=
EXTT3=
EXTT4=
EXTT5=
EXTT6=
EXTT7=
EXTT8=
EXTT9=
EXTT10=
EXTT11=
EXTT12=
EXTT13=
EXTT14=
EXTT15=
EXTT16=
PLAYORDER=
